<?xml version="1.0" encoding="UTF-8" standalone="no"?>
<!DOCTYPE svg PUBLIC "-//W3C//DTD SVG 1.1//EN"
 "http://www.w3.org/Graphics/SVG/1.1/DTD/svg11.dtd">
<!-- Generated by graphviz version 2.38.0 (20140413.2041)
 -->
<!-- Title: G Pages: 1 -->
<svg width="532pt" height="186pt"
 viewBox="0.00 0.00 532.00 186.00" xmlns="http://www.w3.org/2000/svg" xmlns:xlink="http://www.w3.org/1999/xlink">
<g id="graph0" class="graph" transform="scale(1 1) rotate(0) translate(4 182)">
<title>G</title>
<polygon fill="white" stroke="none" points="-4,4 -4,-182 528,-182 528,4 -4,4"/>
<g id="clust1" class="cluster"><title>clusterDenodoActual</title>
<polygon fill="none" stroke="black" points="8,-8 8,-85 516,-85 516,-8 8,-8"/>
<text text-anchor="middle" x="262" y="-69.8" font-family="Times New Roman,serif" font-size="14.00">Denodo</text>
</g>
<g id="clust2" class="cluster"><title>clusterJDBC</title>
<polygon fill="none" stroke="black" points="8,-93 8,-170 516,-170 516,-93 8,-93"/>
<text text-anchor="middle" x="262" y="-154.8" font-family="Times New Roman,serif" font-size="14.00">JDBC</text>
</g>
<!-- daDenodoCat -->
<g id="node1" class="node"><title>daDenodoCat</title>
<polygon fill="lightblue" stroke="black" points="196,-54 16,-54 16,-16 196,-16 196,-54"/>
<text text-anchor="middle" x="106" y="-38.8" font-family="Times New Roman,serif" font-size="14.00">&lt;denodo.databaseName&gt;</text>
<text text-anchor="middle" x="106" y="-23.8" font-family="Times New Roman,serif" font-size="14.00">e.g &#39;denodo_vdp&#39;</text>
</g>
<!-- daDenodoSch -->
<g id="node2" class="node"><title>daDenodoSch</title>
<polygon fill="lightblue" stroke="black" points="292,-53 233,-53 233,-17 292,-17 292,-53"/>
<text text-anchor="middle" x="262.5" y="-31.3" font-family="Times New Roman,serif" font-size="14.00">Catalog</text>
</g>
<!-- daDenodoCat&#45;&gt;daDenodoSch -->
<g id="edge1" class="edge"><title>daDenodoCat&#45;&gt;daDenodoSch</title>
<path fill="none" stroke="black" d="M196.426,-35C205.52,-35 214.384,-35 222.495,-35"/>
<polygon fill="black" stroke="black" points="222.68,-38.5001 232.68,-35 222.68,-31.5001 222.68,-38.5001"/>
</g>
<!-- daDenodoTab -->
<g id="node3" class="node"><title>daDenodoTab</title>
<polygon fill="lightblue" stroke="black" points="383,-54 329,-54 329,-16 383,-16 383,-54"/>
<text text-anchor="middle" x="356" y="-38.8" font-family="Times New Roman,serif" font-size="14.00">Table</text>
<text text-anchor="middle" x="356" y="-23.8" font-family="Times New Roman,serif" font-size="14.00">View</text>
</g>
<!-- daDenodoSch&#45;&gt;daDenodoTab -->
<g id="edge2" class="edge"><title>daDenodoSch&#45;&gt;daDenodoTab</title>
<path fill="none" stroke="black" d="M292.451,-35C300.715,-35 309.827,-35 318.48,-35"/>
<polygon fill="black" stroke="black" points="318.719,-38.5001 328.718,-35 318.718,-31.5001 318.719,-38.5001"/>
</g>
<!-- daDenodoCol -->
<g id="node4" class="node"><title>daDenodoCol</title>
<polygon fill="lightblue" stroke="black" points="508,-54 419,-54 419,-16 508,-16 508,-54"/>
<text text-anchor="middle" x="463.5" y="-38.8" font-family="Times New Roman,serif" font-size="14.00">Column</text>
<text text-anchor="middle" x="463.5" y="-23.8" font-family="Times New Roman,serif" font-size="14.00">ViewColumn</text>
</g>
<!-- daDenodoTab&#45;&gt;daDenodoCol -->
<g id="edge3" class="edge"><title>daDenodoTab&#45;&gt;daDenodoCol</title>
<path fill="none" stroke="black" d="M383.079,-35C390.881,-35 399.741,-35 408.642,-35"/>
<polygon fill="black" stroke="black" points="408.656,-38.5001 418.656,-35 408.656,-31.5001 408.656,-38.5001"/>
</g>
<!-- jCat -->
<g id="node5" class="node"><title>jCat</title>
<polygon fill="lightgrey" stroke="black" points="196,-138 16,-138 16,-102 196,-102 196,-138"/>
<text text-anchor="middle" x="106" y="-116.3" font-family="Times New Roman,serif" font-size="14.00">Catalog</text>
</g>
<!-- jSch -->
<g id="node6" class="node"><title>jSch</title>
<polygon fill="lightgrey" stroke="black" points="293,-138 232,-138 232,-102 293,-102 293,-138"/>
<text text-anchor="middle" x="262.5" y="-116.3" font-family="Times New Roman,serif" font-size="14.00">Schema</text>
</g>
<!-- jCat&#45;&gt;jSch -->
<g id="edge4" class="edge"><title>jCat&#45;&gt;jSch</title>
<path fill="none" stroke="black" d="M196.426,-120C205.143,-120 213.648,-120 221.481,-120"/>
<polygon fill="black" stroke="black" points="221.704,-123.5 231.704,-120 221.704,-116.5 221.704,-123.5"/>
</g>
<!-- jTab -->
<g id="node7" class="node"><title>jTab</title>
<polygon fill="lightgrey" stroke="black" points="383,-139 329,-139 329,-101 383,-101 383,-139"/>
<text text-anchor="middle" x="356" y="-123.8" font-family="Times New Roman,serif" font-size="14.00">Table</text>
<text text-anchor="middle" x="356" y="-108.8" font-family="Times New Roman,serif" font-size="14.00">View</text>
</g>
<!-- jSch&#45;&gt;jTab -->
<g id="edge5" class="edge"><title>jSch&#45;&gt;jTab</title>
<path fill="none" stroke="black" d="M293.207,-120C301.369,-120 310.311,-120 318.794,-120"/>
<polygon fill="black" stroke="black" points="318.831,-123.5 328.831,-120 318.831,-116.5 318.831,-123.5"/>
</g>
<!-- jCol -->
<g id="node8" class="node"><title>jCol</title>
<polygon fill="lightgrey" stroke="black" points="508,-139 419,-139 419,-101 508,-101 508,-139"/>
<text text-anchor="middle" x="463.5" y="-123.8" font-family="Times New Roman,serif" font-size="14.00">Column</text>
<text text-anchor="middle" x="463.5" y="-108.8" font-family="Times New Roman,serif" font-size="14.00">ViewColumn</text>
</g>
<!-- jTab&#45;&gt;jCol -->
<g id="edge6" class="edge"><title>jTab&#45;&gt;jCol</title>
<path fill="none" stroke="black" d="M383.079,-120C390.881,-120 399.741,-120 408.642,-120"/>
<polygon fill="black" stroke="black" points="408.656,-123.5 418.656,-120 408.656,-116.5 408.656,-123.5"/>
</g>
</g>
</svg>
